<svg xmlns="http://www.w3.org/2000/svg" viewBox="0 0 768.83 264.2"><defs><style>.cls-1{fill:#fff;}</style></defs><g id="Calque_2" data-name="Calque 2"><g id="Calque_1-2" data-name="Calque 1"><path class="cls-1" d="M0,0V262.62H260.08V0ZM169.49,251.58A82.59,82.59,0,0,1,87,169.09c0-1.27,0-2.54.09-3.8h78.6V86.69c1.27-.06,2.53-.09,3.81-.09a82.49,82.49,0,0,1,0,165ZM36.61,7.9H159.93V81.07a88.22,88.22,0,0,0-78.46,78.47H36.61Zm0,157.39H81.33c0,1.26-.09,2.53-.09,3.8a88.35,88.35,0,0,0,82.89,88.08v.22H36.61ZM169.49,80.84c-1.28,0-2.54,0-3.81.09V8a168.11,168.11,0,0,1,25.55,4.6,114.06,114.06,0,0,1,28,11.42,103.82,103.82,0,0,1,23.91,18.75,71.88,71.88,0,0,1,11.73,16.46v87.47A88.41,88.41,0,0,0,169.49,80.84Z"/><path class="cls-1" d="M333.32,76.34q11.24,0,18.24,5A20.53,20.53,0,0,1,360,95.65h-5.09a17.26,17.26,0,0,0-6.76-11q-5.33-3.87-14.5-3.87-8.64,0-13.82,3.84a12.35,12.35,0,0,0-5.19,10.48,10.4,10.4,0,0,0,3.59,8.13q3.6,3.19,10.43,4.45l12.78,2.54q9.07,1.65,13.87,6.09a15,15,0,0,1,4.79,11.48,18.05,18.05,0,0,1-7,14.89q-7,5.57-18.46,5.57-12.44,0-19.79-6T306,125.09h5.19q1.41,9.09,7.34,13.82t16.27,4.75q9.07,0,14.57-4.17a13.3,13.3,0,0,0,5.49-11.15,11.17,11.17,0,0,0-3.64-8.46q-3.64-3.42-10.78-4.72l-13.78-2.64q-8.62-1.69-13.07-6.09a15.05,15.05,0,0,1-4.44-11.18,16.54,16.54,0,0,1,6.66-13.72Q322.49,76.34,333.32,76.34Z"/><path class="cls-1" d="M424.34,77.53v4.75H397.75v64.77h-5.09V82.28H366V77.53Z"/><path class="cls-1" d="M493.31,77.53V118q0,13.32-8.06,21.8t-21.08,8.49q-12.93,0-21-8.49t-8-21.8V77.53h5.09V118q0,11.07,6.64,18.26t17.27,7.19q10.72,0,17.36-7.19T488.17,118V77.53Z"/><path class="cls-1" d="M536.92,77.53a40.34,40.34,0,0,1,18.92,4.32A31.2,31.2,0,0,1,568.66,94a34.68,34.68,0,0,1,4.54,17.82,38,38,0,0,1-2.64,14.34,32.15,32.15,0,0,1-7.39,11.18,33,33,0,0,1-11.5,7.19,41.25,41.25,0,0,1-14.75,2.57h-23.4V77.53Zm0,64.73q13.77,0,22.43-8.49t8.66-22q0-13.08-8.66-21.29t-22.43-8.2H518.61v60Z"/><path class="cls-1" d="M591,77.53h5.09v69.52H591Z"/><path class="cls-1" d="M631.84,81.13a36.34,36.34,0,0,1,49.5,13.07,36.32,36.32,0,0,1,0,36.23,36.2,36.2,0,1,1-49.5-49.3ZM650,143.36a31.12,31.12,0,1,0,0-62.23,30.14,30.14,0,0,0-12.07,2.47,31.46,31.46,0,0,0-14.78,44.34A30.76,30.76,0,0,0,650,143.36Z"/><path class="cls-1" d="M363.77,203.32H325.3v13.82h33.63v16.05H325.3v13.17h38.47v16.37H306.48V186.94h57.29Z"/><path class="cls-1" d="M404.85,186.94a47.21,47.21,0,0,1,16.43,2.81,38.79,38.79,0,0,1,13,7.72,34.94,34.94,0,0,1,8.44,11.94,37.88,37.88,0,0,1,3,15.24,38.68,38.68,0,0,1-3,15.42,35.12,35.12,0,0,1-8.44,12.08,38.43,38.43,0,0,1-13,7.78,47.21,47.21,0,0,1-16.43,2.8H374.43V186.94Zm0,58.87a21.51,21.51,0,0,0,15.53-6.06,20.14,20.14,0,0,0,6.28-15.1,19.56,19.56,0,0,0-6.28-14.75,21.66,21.66,0,0,0-15.53-6H393.26v41.89Z"/><path class="cls-1" d="M495.6,185.53a41.63,41.63,0,0,1,15.89,3.05,38.92,38.92,0,0,1,12.78,8.29,38.15,38.15,0,0,1,8.41,12.54,40.44,40.44,0,0,1,0,30.91,38.15,38.15,0,0,1-8.41,12.54,39.1,39.1,0,0,1-12.78,8.3,41.62,41.62,0,0,1-15.89,3A40.9,40.9,0,0,1,475.14,259a38,38,0,0,1-14.42-14.23,40.6,40.6,0,0,1,0-39.83,37.88,37.88,0,0,1,14.42-14.22A40.8,40.8,0,0,1,495.6,185.53Zm-15.07,54.73a21.15,21.15,0,0,0,30.14,0,22.8,22.8,0,0,0,0-30.82,21,21,0,0,0-30.08,0,22.78,22.78,0,0,0,0,30.82Z"/><path class="cls-1" d="M616.82,262.73h-22l-14.37-21.92H566.11v21.92H547.29V186.94h33.08q14.19,0,22.82,7.24t8.62,19.42a26,26,0,0,1-3.37,13.22,25.33,25.33,0,0,1-9.47,9.42Zm-50.71-59.14v20.24H580a14.88,14.88,0,0,0,9.25-2.8,8.85,8.85,0,0,0,3.7-7.43,8.6,8.6,0,0,0-3.7-7.26,15.11,15.11,0,0,0-9.25-2.75Z"/><path class="cls-1" d="M682.27,262.73l-5.11-13.05h-32.1l-5,13.05H620l32.15-75.79h18.07l32.1,75.79ZM651.2,234h19.86l-9.95-25.52Z"/><path class="cls-1" d="M736.3,185.53a51.28,51.28,0,0,1,5.57.3,42.73,42.73,0,0,1,5.88,1.09,38.28,38.28,0,0,1,5.88,2,26.6,26.6,0,0,1,5.38,3.19,24.75,24.75,0,0,1,4.6,4.48,24,24,0,0,1,3.35,6.07,28.88,28.88,0,0,1,1.77,7.81H749.79q-1.63-9.58-12.46-9.58a14.57,14.57,0,0,0-8.08,2,6.27,6.27,0,0,0-3,5.55,5.67,5.67,0,0,0,2.2,4.82,17.83,17.83,0,0,0,6.94,2.63L746,218.07a55.52,55.52,0,0,1,9.47,2.77,27.94,27.94,0,0,1,7.13,4.16,16.33,16.33,0,0,1,4.68,6.2,21.33,21.33,0,0,1,1.57,8.47q0,11.31-8.54,17.92t-22.85,6.61a45.75,45.75,0,0,1-12.3-1.6,36.1,36.1,0,0,1-10.5-4.79,25,25,0,0,1-7.75-8.43,29.51,29.51,0,0,1-3.67-12h18.93a12,12,0,0,0,5.09,8c2.77,1.94,6.36,2.91,10.74,2.91a14.82,14.82,0,0,0,7.87-1.79,5.63,5.63,0,0,0,2.85-5q0-5.18-8.05-6.69l-12.46-2.67q-11.27-2.39-16.62-7.75T706.21,210q0-11.26,8.27-17.87T736.3,185.53Z"/></g></g></svg>