<svg width="32" height="32" viewBox="0 0 32 32" fill="none" xmlns="http://www.w3.org/2000/svg">
<g clip-path="url(#clip0_9091:628)">
<path fill-rule="evenodd" clip-rule="evenodd" d="M0 12.9564C0 7.18772 5.09504 2.66699 11.2 2.66699C17.3049 2.66699 22.4 7.18772 22.4 12.9564C22.4 13.2555 22.1612 13.4979 21.8667 13.4979C16.6948 13.4979 12.8 16.7323 12.8 20.538C12.8 21.2396 12.8979 21.8315 13.0926 22.4247C13.1426 22.577 13.1235 22.744 13.0403 22.8806C12.9572 23.0172 12.8186 23.1093 12.6621 23.132L11.9154 23.2403C11.8904 23.2439 11.8652 23.2458 11.84 23.2458H11.2C9.76214 23.2458 8.29808 23.0515 6.99855 22.5547L2.96505 25.3193C2.76242 25.4581 2.49275 25.4394 2.3107 25.2737C2.12865 25.108 2.08085 24.8378 2.19471 24.6182L4.12329 20.8974C3.69819 20.5482 3.26101 20.1744 2.82287 19.7296L2.50288 19.4046L2.4901 19.3912C0.912272 17.6746 0 15.4874 0 13.173V12.9564ZM11.2 3.75009C5.57162 3.75009 1.06667 7.8941 1.06667 12.9564V13.173C1.06667 15.188 1.85874 17.1138 3.26372 18.6455L3.57712 18.9637C4.08664 19.4811 4.59769 19.8968 5.13317 20.3318C5.33281 20.4939 5.39103 20.7771 5.27195 21.0069L4.12673 23.2163L6.63494 21.4972C6.78365 21.3953 6.97285 21.3761 7.13846 21.4462C8.33362 21.9518 9.75181 22.1627 11.2 22.1627H11.8012L11.9078 22.1473C11.7913 21.6395 11.7333 21.1157 11.7333 20.538C11.7333 16.0513 16.0659 12.6496 21.3168 12.4265C21.0155 7.6081 16.6307 3.75009 11.2 3.75009Z" fill="#0F31AF" stroke="#383C43" stroke-width="0.2" stroke-miterlimit="10" stroke-linecap="round" stroke-linejoin="round"/>
<path fill-rule="evenodd" clip-rule="evenodd" d="M11.7324 20.5382C11.7324 15.8958 16.371 12.415 21.8657 12.415C27.3605 12.415 31.9991 15.8958 31.9991 20.5382C31.9991 23.1448 30.4111 25.4699 27.9553 26.9595L28.6628 29.0251C28.7332 29.2306 28.6756 29.459 28.5165 29.6049C28.3574 29.7508 28.1278 29.7858 27.9335 29.6937L24.9029 28.2576C24.5013 28.3535 24.0342 28.4484 23.5797 28.5407L23.5703 28.5426C22.985 28.6615 22.4069 28.6614 21.8874 28.6614H21.8657C16.371 28.6614 11.7324 25.1806 11.7324 20.5382ZM21.8657 13.4981C16.6939 13.4981 12.7991 16.7325 12.7991 20.5382C12.7991 24.344 16.6939 27.5783 21.8657 27.5783C22.4073 27.5783 22.888 27.5766 23.3612 27.4805C23.8985 27.3714 24.418 27.2658 24.8297 27.1613C24.9484 27.1311 25.0737 27.1434 25.1846 27.1959L27.2406 28.1701L26.802 26.8898C26.7161 26.6391 26.8219 26.3621 27.0517 26.2357C29.4922 24.8934 30.9324 22.7765 30.9324 20.5382C30.9324 16.7325 27.0376 13.4981 21.8657 13.4981Z" fill="#0F31AF" stroke="#383C43" stroke-width="0.2" stroke-miterlimit="10" stroke-linecap="round" stroke-linejoin="round"/>
</g>
<defs>
<clipPath id="clip0_9091:628">
<rect width="32" height="32" fill="white"/>
</clipPath>
</defs>
</svg>
