<svg width="32" height="32" viewBox="0 0 32 32" fill="none" xmlns="http://www.w3.org/2000/svg">
<path fill-rule="evenodd" clip-rule="evenodd" d="M8.19271 2.02411e-06L8.21077 3.94664e-06C9.18163 3.94664e-06 9.93696 0.380339 10.449 0.910066C10.4791 0.941146 10.5053 0.97592 10.5272 1.01361C10.7125 1.33312 10.8351 1.67122 10.8351 2.02936C10.8351 2.39713 10.706 2.72259 10.4973 3.01044C10.4826 3.03079 10.4664 3.05003 10.449 3.06802L10.2732 3.24995L10.2139 4.04644C10.3074 4.11256 10.3876 4.19293 10.4528 4.27969C10.6186 4.50019 10.7052 4.77915 10.7052 5.05324C10.7052 5.0711 10.7043 5.08895 10.7026 5.10673L10.6009 6.15897C10.5944 6.43175 10.5004 6.6973 10.3061 6.89826C10.222 6.98529 10.1262 7.05285 10.0231 7.10205C9.87032 7.9203 9.51267 8.6684 8.98537 9.22148L9.07005 9.65946L11.0391 10.1224C12.5304 10.5081 13.5114 11.9164 13.5114 13.4395C13.5114 13.7363 13.2787 13.977 12.9917 13.977H0.519669C0.232664 13.977 0 13.7363 0 13.4395C0 11.9194 0.977163 10.5137 2.46353 10.1248L4.36488 9.56284L4.51065 9.06021C4.09078 8.53873 3.76074 7.85018 3.60559 7.13393C3.48003 7.08343 3.36485 7.00901 3.2695 6.9227C3.08729 6.75778 2.9205 6.49668 2.91061 6.15999L2.81344 5.15476C2.72475 4.79436 2.858 4.46604 3.04141 4.25259C3.11159 4.17092 3.19554 4.09759 3.28966 4.03753C3.28516 3.98611 3.28052 3.93211 3.27587 3.87682C3.25056 3.57579 3.22195 3.20017 3.22195 3.01044C3.22195 2.48197 3.3036 1.81629 3.80288 1.29981C4.27308 0.813405 5.01365 0.562093 6.07468 0.539289C6.89075 -0.000210965 7.69492 -7.9427e-05 8.19271 2.02411e-06ZM8.21077 1.07516C7.69585 1.07516 7.11984 1.08274 6.53808 1.5126C6.44994 1.57773 6.34434 1.61274 6.23603 1.61274C5.20117 1.61274 4.74568 1.84502 4.53781 2.06006C4.33553 2.26931 4.26129 2.57127 4.26129 3.01044C4.26129 3.14325 4.28464 3.46649 4.3113 3.78368C4.32413 3.93634 4.33699 4.07928 4.34664 4.18414L4.35828 4.30893L4.36258 4.354C4.37719 4.50512 4.32938 4.65625 4.23086 4.76886C4.13321 4.88048 3.99484 4.94458 3.84944 4.94571C3.8481 4.9461 3.8456 4.94697 3.84203 4.94873C3.84006 4.94971 3.83812 4.95078 3.83624 4.95193C3.83917 4.96774 3.84142 4.9837 3.84297 4.99975L3.94691 6.0749C3.948 6.08622 3.94875 6.09757 3.94914 6.10893C3.95048 6.11034 3.95206 6.1119 3.9539 6.11357C3.95809 6.11736 3.96291 6.12105 3.968 6.12433C3.9705 6.12594 3.97283 6.12728 3.97489 6.12839H4.05342C4.3155 6.12839 4.53657 6.33027 4.56908 6.59929C4.65914 7.34467 5.0249 8.09335 5.46022 8.54367C5.5954 8.68351 5.64544 8.88884 5.59051 9.07827L5.27871 10.1534C5.22781 10.3289 5.09402 10.4655 4.92372 10.5158L2.74111 11.1609L2.72438 11.1656C1.89511 11.38 1.28534 12.0713 1.0989 12.9019H12.4125C12.2264 12.073 11.6188 11.3829 10.7921 11.1669L8.51134 10.6307C8.31156 10.5837 8.15711 10.4197 8.11693 10.2119L7.90906 9.13674C7.87169 8.94346 7.93958 8.74452 8.08596 8.61833C8.59003 8.1838 8.95377 7.4599 9.04542 6.6066C9.07466 6.33436 9.29711 6.12839 9.56191 6.12839C9.56191 6.11053 9.56277 6.09268 9.56449 6.0749L9.66502 5.03497C9.66358 5.01882 9.66028 5.00225 9.65516 4.98636C9.64924 4.96797 9.64205 4.95409 9.63595 4.94483C9.50219 4.93686 9.37611 4.87568 9.28455 4.7734C9.1862 4.66353 9.13661 4.51621 9.14771 4.36691L9.25164 2.96921C9.26116 2.84126 9.3146 2.72106 9.40232 2.63032L9.68544 2.33744C9.7724 2.20928 9.79576 2.1126 9.79576 2.02936C9.79576 1.93953 9.76822 1.81091 9.66816 1.6244C9.34827 1.31573 8.87048 1.07516 8.21077 1.07516Z" fill="#0F31AF"/>
<path fill-rule="evenodd" clip-rule="evenodd" d="M18.1723 17.2871L18.185 17.2871C19.1924 17.2871 20.0276 17.5177 20.584 18.3505C20.8349 18.6751 20.9965 19.0465 20.9965 19.4437C20.9965 19.8581 20.8205 20.2255 20.5316 20.5192L20.3565 20.6971L20.2968 21.5471C20.4136 21.609 20.5173 21.6914 20.6046 21.7912C20.8039 22.0191 20.8923 22.3079 20.8923 22.5794C20.8923 22.5954 20.8916 22.6114 20.8902 22.6274L20.7861 23.7917C20.7824 23.8323 20.7742 23.8724 20.7615 23.9111C20.6545 24.2374 20.4369 24.5581 20.0929 24.7104C19.9138 25.4802 19.484 26.2595 18.9719 26.8529L19.1286 27.437L21.2251 27.9929C22.8219 28.3713 23.9121 29.8621 23.9121 31.4705C23.9121 31.7628 23.679 31.9998 23.3914 31.9998H9.85463C9.56709 31.9998 9.33398 31.7628 9.33398 31.4705C9.33398 29.8621 10.4242 28.3713 12.0209 27.9929L14.1258 27.4348L14.2691 26.9493C13.7718 26.3532 13.4231 25.5924 13.2621 24.8595C13.1153 24.817 12.9756 24.7471 12.8541 24.651C12.6408 24.4824 12.4674 24.216 12.4582 23.8779L12.3559 22.7332C12.3544 22.7173 12.3537 22.7013 12.3537 22.6853C12.3537 22.3544 12.5113 22.0678 12.7015 21.8744C12.7705 21.8042 12.8517 21.7384 12.9427 21.683C12.938 21.6288 12.9331 21.5713 12.9282 21.512C12.9025 21.1982 12.8744 20.8057 12.8744 20.5684C12.8744 20.0302 12.9182 19.3161 13.4115 18.7589C13.8877 18.2211 14.6709 17.9477 15.8294 17.9239C16.7533 17.287 17.6636 17.2871 18.1723 17.2871ZM13.4992 22.0502V22.5794C13.5023 22.5794 13.5039 22.5792 13.5038 22.5792C13.5038 22.5792 13.4991 22.58 13.4899 22.5844C13.4753 22.5913 13.4564 22.604 13.4378 22.6229C13.4192 22.6418 13.4067 22.6611 13.3999 22.6759C13.3986 22.6786 13.3977 22.6809 13.397 22.6829L13.497 23.8017C13.4975 23.8075 13.498 23.8133 13.4983 23.8191C13.5073 23.8254 13.5207 23.8327 13.5385 23.8387C13.5598 23.8459 13.5823 23.8496 13.6033 23.8496H13.7074C13.97 23.8496 14.1915 24.0483 14.224 24.3132C14.3153 25.0557 14.6865 25.8957 15.221 26.4391C15.3564 26.5767 15.4066 26.7789 15.3515 26.9654L15.0391 28.0238C14.9869 28.2008 14.8477 28.3372 14.6719 28.3839L12.2769 29.0189L12.2625 29.0225C11.3302 29.2412 10.6292 30.0192 10.4315 30.9413H22.8145C22.6169 30.0192 21.9159 29.2412 20.9835 29.0225L20.9692 29.0189L18.5742 28.3839C18.3938 28.336 18.2524 28.1938 18.2033 28.011L17.8909 26.8467C17.8418 26.6635 17.893 26.4675 18.0251 26.3332C18.5862 25.7629 19.0393 24.9138 19.1261 24.2073C19.1587 23.9425 19.3802 23.7437 19.6428 23.7437C19.662 23.7437 19.6714 23.7407 19.6747 23.7394C19.6781 23.7381 19.683 23.7358 19.6904 23.7292C19.7039 23.7172 19.7295 23.6872 19.7553 23.6257L19.8503 22.5631C19.8472 22.5266 19.8342 22.5034 19.8264 22.4944C19.8228 22.4903 19.8187 22.487 19.8116 22.4838C19.8043 22.4806 19.785 22.4736 19.7469 22.4736C19.6024 22.4736 19.4644 22.4125 19.3659 22.305C19.2674 22.1975 19.2173 22.0532 19.2276 21.9067L19.3317 20.4248C19.3406 20.2978 19.3943 20.1783 19.4829 20.0883L19.7953 19.7707C19.9228 19.6411 19.9552 19.5322 19.9552 19.4437C19.9552 19.3456 19.9146 19.1941 19.7569 18.9937C19.7475 18.9818 19.7386 18.9694 19.7302 18.9567C19.4536 18.5349 19.0442 18.3456 18.185 18.3456C17.6758 18.3456 16.9969 18.3516 16.3106 18.8748C16.2205 18.9435 16.1109 18.9807 15.9983 18.9807C14.855 18.9807 14.3895 19.2367 14.1855 19.467C13.976 19.7037 13.9157 20.048 13.9157 20.5684C13.9157 20.7543 13.9396 21.1028 13.9659 21.4241C13.9788 21.5806 13.9916 21.7242 14.0013 21.8288L14.0129 21.9527L14.0161 21.9862L14.0172 21.9969L13.4992 22.0502Z" fill="#0F31AF"/>
<path fill-rule="evenodd" clip-rule="evenodd" d="M5.47718 16.3317C5.66811 16.1342 5.97766 16.1342 6.16859 16.3317L9.10198 19.3662C9.29291 19.5637 9.29291 19.8839 9.10198 20.0814C8.91106 20.279 8.6015 20.279 8.41058 20.0814L5.47718 17.047C5.28625 16.8495 5.28625 16.5292 5.47718 16.3317Z" fill="#0F31AF"/>
<path fill-rule="evenodd" clip-rule="evenodd" d="M27.3996 16.3317C27.6079 16.5292 27.6079 16.8495 27.3996 17.047L24.1995 20.0814C23.9913 20.279 23.6536 20.279 23.4453 20.0814C23.237 19.8839 23.237 19.5637 23.4453 19.3662L26.6453 16.3317C26.8536 16.1342 27.1913 16.1342 27.3996 16.3317Z" fill="#0F31AF"/>
<path fill-rule="evenodd" clip-rule="evenodd" d="M13.334 5.833C13.334 5.55686 13.5636 5.33301 13.8468 5.33301H18.1545C18.4377 5.33301 18.6673 5.55686 18.6673 5.833C18.6673 6.10914 18.4377 6.33299 18.1545 6.33299H13.8468C13.5636 6.33299 13.334 6.10914 13.334 5.833Z" fill="#0F31AF"/>
<path fill-rule="evenodd" clip-rule="evenodd" d="M23.1203 0.947004C23.8696 0.268327 24.743 0 25.244 0C25.6209 0 25.9381 0.0252171 26.2295 0.144851C26.4557 0.237745 26.6358 0.375127 26.8044 0.533474H26.9069C27.0554 0.533474 27.2724 0.552589 27.5089 0.663165C27.7492 0.775577 27.978 0.967667 28.1708 1.26449C28.5427 1.83722 28.7777 2.79373 28.7777 4.37449C28.7777 5.86003 29.0271 6.77108 29.2526 7.29199C29.3655 7.55277 29.4737 7.71876 29.5449 7.81259C29.5806 7.85965 29.6075 7.88909 29.6215 7.9036C29.6265 7.90875 29.6299 7.91205 29.6315 7.91361C29.7571 8.02179 29.8257 8.18469 29.8162 8.35316C29.8064 8.52583 29.7157 8.68292 29.5728 8.77459L29.2974 8.3222C29.5728 8.77459 29.573 8.77449 29.5728 8.77459L29.5715 8.77542L29.5699 8.77644L29.5658 8.77905L29.5538 8.78649C29.5441 8.7924 29.5311 8.80018 29.5149 8.80962C29.4825 8.82851 29.4369 8.85405 29.3785 8.88453C29.2616 8.94548 29.093 9.02624 28.8744 9.11311C28.5414 9.24543 28.0924 9.39189 27.5334 9.50403L27.5507 9.58395L29.5274 10.0451C31.0293 10.4306 31.9997 11.8373 31.9997 13.4436C31.9997 13.585 31.9449 13.7207 31.8475 13.8208C31.75 13.9208 31.6178 13.977 31.48 13.977H19.008C18.7209 13.977 18.4883 13.7382 18.4883 13.4436C18.4883 11.9322 19.4693 10.5347 20.9606 10.1519L20.9714 10.1492L22.9372 9.69064L22.9545 9.61072C22.3955 9.49858 21.9465 9.35212 21.6136 9.21981C21.395 9.13294 21.2264 9.05217 21.1095 8.99122C21.051 8.96074 21.0055 8.93521 20.973 8.91632C20.9568 8.90687 20.9439 8.89909 20.9342 8.89318L20.9222 8.88575L20.918 8.88313L20.9164 8.88211L20.9154 8.88147C20.9153 8.88138 20.9151 8.88128 21.1906 8.4289L20.9154 8.88147C20.7726 8.7898 20.6815 8.63253 20.6718 8.45986C20.6622 8.29139 20.7309 8.12849 20.8564 8.02031C20.8581 8.01874 20.8615 8.01545 20.8665 8.0103C20.8805 7.99578 20.9073 7.96635 20.943 7.91928C21.0143 7.82545 21.1224 7.65947 21.2354 7.39868C21.4609 6.87778 21.7102 5.96673 21.7102 4.48118C21.7102 2.78198 22.3452 1.64904 23.1203 0.947004ZM21.9906 8.22554C22.3588 8.37169 22.9159 8.54653 23.6497 8.64697C23.794 8.66672 23.9237 8.74772 24.007 8.87024C24.0904 8.99277 24.1199 9.14558 24.0883 9.29149L23.8805 10.2517C23.8369 10.453 23.6842 10.6105 23.4883 10.6562L21.2075 11.1884C20.3809 11.4027 19.7732 12.0876 19.5872 12.9101H30.9103C30.7349 11.9981 30.1139 11.2978 29.2804 11.0817L26.9996 10.5495C26.8037 10.5038 26.6511 10.3463 26.6075 10.145L26.3996 9.18479C26.368 9.03889 26.3975 8.88607 26.4809 8.76355C26.5643 8.64102 26.6939 8.56002 26.8382 8.54027C27.5721 8.43983 28.1292 8.265 28.4973 8.11884C28.4335 8.00569 28.3677 7.8751 28.3028 7.72532C28.0087 7.04591 27.7384 5.9831 27.7384 4.37449C27.7384 2.8611 27.5057 2.16384 27.306 1.85633C27.2129 1.71304 27.1299 1.6584 27.078 1.63411C27.0221 1.60798 26.9663 1.60042 26.9069 1.60042H26.5951C26.4573 1.60042 26.3251 1.54422 26.2277 1.44417C26.0291 1.24037 25.9352 1.17317 25.8435 1.13549C25.7451 1.09508 25.5946 1.06695 25.244 1.06695C25.0174 1.06695 24.3838 1.2254 23.8079 1.74704C23.2578 2.24532 22.7496 3.08624 22.7496 4.48118C22.7496 6.08979 22.4793 7.1526 22.1851 7.83201C22.1203 7.9818 22.0545 8.11238 21.9906 8.22554Z" fill="#0F31AF"/>
</svg>
